<?xml version="1.0" encoding="UTF-8"?><svg xmlns="http://www.w3.org/2000/svg" viewBox="0 0 279.66 69.5"><defs><style>.d{fill:#fff;}</style></defs><g id="a"/><g id="b"><g id="c"><g><path class="d" d="M157.76,36.08c2.43-12.48-10.19-24.22-22.49-21.23-14.89,2.7-19.3,23.52-7.12,32.3l-1.82,2.89c-.75-.59-1.97-1.16-2.61-.1l-9.05,14.35c-1.42,1.93,4.72,4.06,5.5,5.01,.61,.38,1.42,.2,1.8-.41l9.05-14.35c.73-1.12-.52-1.96-1.39-2.42l1.82-2.89c10.49,5.59,24.66-1.27,26.32-13.15Zm-12.02,5.78c-11.82,8.67-24.34-9.99-12.48-18.11,11.79-8.68,24.33,10.03,12.48,18.11Z"/><path class="d" d="M173.02,50.87V22.59c-6.07-.03-9.49,1.21-8.72-6.62h24.81c.77,7.81-2.63,6.59-8.67,6.62v25.66c.09,3.64-5.23,2.44-7.42,2.62Z"/><path class="d" d="M199.46,50.87V18.6c-.09-3.64,5.24-2.43,7.42-2.62V48.25c.09,3.64-5.24,2.43-7.42,2.62Z"/><path class="d" d="M220.72,50.87c1.86-39.62-8.57-34.88,20.4-34.9v6.62h-12.98v6.09h12.98v6.77h-12.98v12.79c.08,3.65-5.23,2.44-7.42,2.62Z"/><path class="d" d="M260.13,50.87v-15.76l-11.88-19.14c2.32,.28,7.81-1.01,9.13,1.73l6.12,9.91c.13,.22,.27,.48,.44,.78,.19-.43,6.44-10.09,6.85-10.74,1.31-2.63,6.62-1.42,8.88-1.67l-12.15,19.14v13.12c.08,3.64-5.18,2.46-7.38,2.64Z"/><path class="d" d="M107.67,15.24V50.87h-7.02s-16.96-21.86-17.41-22.61v22.61h-7V15.24h7s17.41,23.45,17.41,23.47V15.24h7.02Z"/></g><path class="d" d="M57.92,51.97c-2.32-3.27-3.22-1.24-3.55-4.17-.98-20.01,6.43-39.95-20.84-42.28-.81-.13-.44-1.74-.52-2.28,0-2.21-1.44-3.24-3.23-3.24h-.02c-5.03,.2-2.33,4.12-3.91,5.51C-1.41,7.85,5.98,27.81,5.01,47.8c-.33,2.93-1.24,.9-3.55,4.17-1.78,2.52-1.89,4.91-.56,6.96,1.5,2.2,3.46,2.5,4.29,2.58H54.19c.85-.05,2.78-.4,4.28-2.58,1.33-2.05,1.23-4.44-.55-6.96ZM17.56,14.36c1.63,1.6,13,11.91,14.11,13.52V14.36h2.85v19.9c-1.42-1.43-13.3-12.12-14.12-13.55v13.55h-2.84V14.36Zm-5.53,0h3.08v19.9h-3.08V14.36Zm3.37,31.97v9.64h-3.37v-19.9h3.37v7.34h10.21v-7.34h3.38v19.9h-3.38v-9.64H15.4Zm28.7,9.7l-2.15-4.95h-7.52l-2.2,4.95h-3.24l9.19-19.96,9.17,19.96h-3.25Zm-3.24-7.54c-.49-1.09-2.25-5.08-2.66-6.05-.36,.95-2.16,4.99-2.63,6.05h5.29Z"/></g></g></svg>